<?xml version="1.0" encoding="utf-8"?>
<svg xmlns="http://www.w3.org/2000/svg">
<symbol id="icon-business-planing" viewBox="0 0 415.963 415.963"><path d="M328.712 264.539c12.928-21.632 21.504-48.992 23.168-76.064 1.056-17.376-2.816-35.616-11.2-52.768-13.152-26.944-35.744-42.08-57.568-56.704-16.288-10.912-31.68-21.216-42.56-35.936l-1.952-2.624c-6.432-8.64-13.696-18.432-14.848-26.656-1.152-8.32-8.704-14.24-16.96-13.76a15.957 15.957 0 0 0-14.88 15.936v285.12c-13.408-8.128-29.92-13.12-48-13.12-44.096 0-80 28.704-80 64s35.904 64 80 64 80-28.704 80-64V165.467c24.032 9.184 63.36 32.576 74.176 87.2-2.016 2.976-3.936 6.176-6.176 8.736-5.856 6.624-5.216 16.736 1.44 22.56 6.592 5.888 16.704 5.184 22.56-1.44 4.288-4.864 8.096-10.56 11.744-16.512.384-.448.737-.928 1.056-1.472z"/>
</symbol>
<symbol id="icon-digital-marketing" viewBox="0 0 415.963 415.963"><path d="M328.712 264.539c12.928-21.632 21.504-48.992 23.168-76.064 1.056-17.376-2.816-35.616-11.2-52.768-13.152-26.944-35.744-42.08-57.568-56.704-16.288-10.912-31.68-21.216-42.56-35.936l-1.952-2.624c-6.432-8.64-13.696-18.432-14.848-26.656-1.152-8.32-8.704-14.24-16.96-13.76a15.957 15.957 0 0 0-14.88 15.936v285.12c-13.408-8.128-29.92-13.12-48-13.12-44.096 0-80 28.704-80 64s35.904 64 80 64 80-28.704 80-64V165.467c24.032 9.184 63.36 32.576 74.176 87.2-2.016 2.976-3.936 6.176-6.176 8.736-5.856 6.624-5.216 16.736 1.44 22.56 6.592 5.888 16.704 5.184 22.56-1.44 4.288-4.864 8.096-10.56 11.744-16.512.384-.448.737-.928 1.056-1.472z"/>
</symbol>
<symbol id="icon-down" viewBox="0 0 451.847 451.847">
  <path d="M225.923 354.706c-8.098 0-16.195-3.092-22.369-9.263L9.27 151.157c-12.359-12.359-12.359-32.397 0-44.751 12.354-12.354 32.388-12.354 44.748 0l171.905 171.915 171.906-171.909c12.359-12.354 32.391-12.354 44.744 0 12.365 12.354 12.365 32.392 0 44.751L248.292 345.449c-6.177 6.172-14.274 9.257-22.369 9.257z"/>

</symbol>
<symbol id="icon-instagram" viewBox="0 0 512 512"><path d="M512 97.248c-19.04 8.352-39.328 13.888-60.48 16.576 21.76-12.992 38.368-33.408 46.176-58.016-20.288 12.096-42.688 20.64-66.56 25.408C411.872 60.704 384.416 48 354.464 48c-58.112 0-104.896 47.168-104.896 104.992 0 8.32.704 16.32 2.432 23.936-87.264-4.256-164.48-46.08-216.352-109.792-9.056 15.712-14.368 33.696-14.368 53.056 0 36.352 18.72 68.576 46.624 87.232-16.864-.32-33.408-5.216-47.424-12.928v1.152c0 51.008 36.384 93.376 84.096 103.136-8.544 2.336-17.856 3.456-27.52 3.456-6.72 0-13.504-.384-19.872-1.792 13.6 41.568 52.192 72.128 98.08 73.12-35.712 27.936-81.056 44.768-130.144 44.768-8.608 0-16.864-.384-25.12-1.44C46.496 446.88 101.6 464 161.024 464c193.152 0 298.752-160 298.752-298.688 0-4.64-.16-9.12-.384-13.568 20.832-14.784 38.336-33.248 52.608-54.496z"/>
</symbol>
<symbol id="icon-next" viewBox="0 0 512 512"><path d="M512 97.248c-19.04 8.352-39.328 13.888-60.48 16.576 21.76-12.992 38.368-33.408 46.176-58.016-20.288 12.096-42.688 20.64-66.56 25.408C411.872 60.704 384.416 48 354.464 48c-58.112 0-104.896 47.168-104.896 104.992 0 8.32.704 16.32 2.432 23.936-87.264-4.256-164.48-46.08-216.352-109.792-9.056 15.712-14.368 33.696-14.368 53.056 0 36.352 18.72 68.576 46.624 87.232-16.864-.32-33.408-5.216-47.424-12.928v1.152c0 51.008 36.384 93.376 84.096 103.136-8.544 2.336-17.856 3.456-27.52 3.456-6.72 0-13.504-.384-19.872-1.792 13.6 41.568 52.192 72.128 98.08 73.12-35.712 27.936-81.056 44.768-130.144 44.768-8.608 0-16.864-.384-25.12-1.44C46.496 446.88 101.6 464 161.024 464c193.152 0 298.752-160 298.752-298.688 0-4.64-.16-9.12-.384-13.568 20.832-14.784 38.336-33.248 52.608-54.496z"/>
</symbol>
<symbol id="icon-play" viewBox="0 0 511.999 511.999"><path d="M443.86 196.919 141.46 10.514C119.582-2.955 93.131-3.515 70.702 9.016c-22.429 12.529-35.819 35.35-35.819 61.041v371.112c0 38.846 31.3 70.619 69.77 70.829l.313.001c12.022-.001 24.55-3.769 36.251-10.909 9.413-5.743 12.388-18.029 6.645-27.441-5.743-9.414-18.031-12.388-27.441-6.645-5.473 3.338-10.818 5.065-15.553 5.064-14.515-.079-30.056-12.513-30.056-30.898V70.058c0-11.021 5.744-20.808 15.364-26.183 9.621-5.375 20.966-5.135 30.339.636l302.401 186.405c9.089 5.596 14.29 14.927 14.268 25.601-.022 10.673-5.261 19.983-14.4 25.56L204.147 415.945c-9.404 5.758-12.36 18.049-6.602 27.452 5.757 9.404 18.048 12.36 27.452 6.602l218.611-133.852c20.931-12.769 33.457-35.029 33.507-59.55.05-24.518-12.386-46.83-33.255-59.678z"/>
</symbol>
<symbol id="icon-prev" viewBox="0 0 512 512"><path d="M512 97.248c-19.04 8.352-39.328 13.888-60.48 16.576 21.76-12.992 38.368-33.408 46.176-58.016-20.288 12.096-42.688 20.64-66.56 25.408C411.872 60.704 384.416 48 354.464 48c-58.112 0-104.896 47.168-104.896 104.992 0 8.32.704 16.32 2.432 23.936-87.264-4.256-164.48-46.08-216.352-109.792-9.056 15.712-14.368 33.696-14.368 53.056 0 36.352 18.72 68.576 46.624 87.232-16.864-.32-33.408-5.216-47.424-12.928v1.152c0 51.008 36.384 93.376 84.096 103.136-8.544 2.336-17.856 3.456-27.52 3.456-6.72 0-13.504-.384-19.872-1.792 13.6 41.568 52.192 72.128 98.08 73.12-35.712 27.936-81.056 44.768-130.144 44.768-8.608 0-16.864-.384-25.12-1.44C46.496 446.88 101.6 464 161.024 464c193.152 0 298.752-160 298.752-298.688 0-4.64-.16-9.12-.384-13.568 20.832-14.784 38.336-33.248 52.608-54.496z"/>
</symbol>
<symbol id="icon-product-design" viewBox="0 0 415.963 415.963"><path d="M328.712 264.539c12.928-21.632 21.504-48.992 23.168-76.064 1.056-17.376-2.816-35.616-11.2-52.768-13.152-26.944-35.744-42.08-57.568-56.704-16.288-10.912-31.68-21.216-42.56-35.936l-1.952-2.624c-6.432-8.64-13.696-18.432-14.848-26.656-1.152-8.32-8.704-14.24-16.96-13.76a15.957 15.957 0 0 0-14.88 15.936v285.12c-13.408-8.128-29.92-13.12-48-13.12-44.096 0-80 28.704-80 64s35.904 64 80 64 80-28.704 80-64V165.467c24.032 9.184 63.36 32.576 74.176 87.2-2.016 2.976-3.936 6.176-6.176 8.736-5.856 6.624-5.216 16.736 1.44 22.56 6.592 5.888 16.704 5.184 22.56-1.44 4.288-4.864 8.096-10.56 11.744-16.512.384-.448.737-.928 1.056-1.472z"/>
</symbol>
<symbol id="icon-twitter" viewBox="0 0 512 512"><path d="M512 97.248c-19.04 8.352-39.328 13.888-60.48 16.576 21.76-12.992 38.368-33.408 46.176-58.016-20.288 12.096-42.688 20.64-66.56 25.408C411.872 60.704 384.416 48 354.464 48c-58.112 0-104.896 47.168-104.896 104.992 0 8.32.704 16.32 2.432 23.936-87.264-4.256-164.48-46.08-216.352-109.792-9.056 15.712-14.368 33.696-14.368 53.056 0 36.352 18.72 68.576 46.624 87.232-16.864-.32-33.408-5.216-47.424-12.928v1.152c0 51.008 36.384 93.376 84.096 103.136-8.544 2.336-17.856 3.456-27.52 3.456-6.72 0-13.504-.384-19.872-1.792 13.6 41.568 52.192 72.128 98.08 73.12-35.712 27.936-81.056 44.768-130.144 44.768-8.608 0-16.864-.384-25.12-1.44C46.496 446.88 101.6 464 161.024 464c193.152 0 298.752-160 298.752-298.688 0-4.64-.16-9.12-.384-13.568 20.832-14.784 38.336-33.248 52.608-54.496z"/>
</symbol>
<symbol id="icon-youtube" viewBox="0 0 409.592 409.592"><path d="M403.882 107.206c-2.15-17.935-19.052-35.133-36.736-37.437a1316.32 1316.32 0 0 0-324.685 0C24.762 72.068 7.86 89.271 5.71 107.206c-7.613 65.731-7.613 129.464 0 195.18 2.15 17.935 19.052 35.149 36.751 37.437a1316.32 1316.32 0 0 0 324.685 0c17.684-2.284 34.586-19.502 36.736-37.437 7.614-65.71 7.614-129.449 0-195.18zM170.661 273.074V136.539l102.4 68.27-102.4 68.265z"/>
</symbol></svg>