<?xml version="1.0" encoding="utf-8"?>
<svg xmlns="http://www.w3.org/2000/svg">
<symbol id="icon-business-planing" viewBox="0 0 415.963 415.963"><path d="M328.712 264.539c12.928-21.632 21.504-48.992 23.168-76.064 1.056-17.376-2.816-35.616-11.2-52.768-13.152-26.944-35.744-42.08-57.568-56.704-16.288-10.912-31.68-21.216-42.56-35.936l-1.952-2.624c-6.432-8.64-13.696-18.432-14.848-26.656-1.152-8.32-8.704-14.24-16.96-13.76a15.957 15.957 0 0 0-14.88 15.936v285.12c-13.408-8.128-29.92-13.12-48-13.12-44.096 0-80 28.704-80 64s35.904 64 80 64 80-28.704 80-64V165.467c24.032 9.184 63.36 32.576 74.176 87.2-2.016 2.976-3.936 6.176-6.176 8.736-5.856 6.624-5.216 16.736 1.44 22.56 6.592 5.888 16.704 5.184 22.56-1.44 4.288-4.864 8.096-10.56 11.744-16.512.384-.448.737-.928 1.056-1.472z"/>
</symbol>
<symbol id="icon-digital-marketing" viewBox="0 0 415.963 415.963"><path d="M328.712 264.539c12.928-21.632 21.504-48.992 23.168-76.064 1.056-17.376-2.816-35.616-11.2-52.768-13.152-26.944-35.744-42.08-57.568-56.704-16.288-10.912-31.68-21.216-42.56-35.936l-1.952-2.624c-6.432-8.64-13.696-18.432-14.848-26.656-1.152-8.32-8.704-14.24-16.96-13.76a15.957 15.957 0 0 0-14.88 15.936v285.12c-13.408-8.128-29.92-13.12-48-13.12-44.096 0-80 28.704-80 64s35.904 64 80 64 80-28.704 80-64V165.467c24.032 9.184 63.36 32.576 74.176 87.2-2.016 2.976-3.936 6.176-6.176 8.736-5.856 6.624-5.216 16.736 1.44 22.56 6.592 5.888 16.704 5.184 22.56-1.44 4.288-4.864 8.096-10.56 11.744-16.512.384-.448.737-.928 1.056-1.472z"/>
</symbol>
<symbol id="icon-play" viewBox="0 0 511.999 511.999"><path d="M443.86 196.919 141.46 10.514C119.582-2.955 93.131-3.515 70.702 9.016c-22.429 12.529-35.819 35.35-35.819 61.041v371.112c0 38.846 31.3 70.619 69.77 70.829l.313.001c12.022-.001 24.55-3.769 36.251-10.909 9.413-5.743 12.388-18.029 6.645-27.441-5.743-9.414-18.031-12.388-27.441-6.645-5.473 3.338-10.818 5.065-15.553 5.064-14.515-.079-30.056-12.513-30.056-30.898V70.058c0-11.021 5.744-20.808 15.364-26.183 9.621-5.375 20.966-5.135 30.339.636l302.401 186.405c9.089 5.596 14.29 14.927 14.268 25.601-.022 10.673-5.261 19.983-14.4 25.56L204.147 415.945c-9.404 5.758-12.36 18.049-6.602 27.452 5.757 9.404 18.048 12.36 27.452 6.602l218.611-133.852c20.931-12.769 33.457-35.029 33.507-59.55.05-24.518-12.386-46.83-33.255-59.678z"/>
</symbol>
<symbol id="icon-product-design" viewBox="0 0 415.963 415.963"><path d="M328.712 264.539c12.928-21.632 21.504-48.992 23.168-76.064 1.056-17.376-2.816-35.616-11.2-52.768-13.152-26.944-35.744-42.08-57.568-56.704-16.288-10.912-31.68-21.216-42.56-35.936l-1.952-2.624c-6.432-8.64-13.696-18.432-14.848-26.656-1.152-8.32-8.704-14.24-16.96-13.76a15.957 15.957 0 0 0-14.88 15.936v285.12c-13.408-8.128-29.92-13.12-48-13.12-44.096 0-80 28.704-80 64s35.904 64 80 64 80-28.704 80-64V165.467c24.032 9.184 63.36 32.576 74.176 87.2-2.016 2.976-3.936 6.176-6.176 8.736-5.856 6.624-5.216 16.736 1.44 22.56 6.592 5.888 16.704 5.184 22.56-1.44 4.288-4.864 8.096-10.56 11.744-16.512.384-.448.737-.928 1.056-1.472z"/>
</symbol></svg>